<svg width="102" height="90" viewBox="0 0 102 90" fill="none" xmlns="http://www.w3.org/2000/svg">
<g clip-path="url(#clip0_406_119)">
<path d="M47.2352 18.7646L47.2353 18.7647C47.919 19.4483 47.919 20.5516 47.2353 21.2353L47.2353 21.2353L32.2376 36.2353C31.554 36.9189 30.4461 36.9189 29.7626 36.2353C29.0791 35.5517 29.0791 34.4483 29.7626 33.7646L29.7626 33.7646L42.9914 20.5302L43.5214 19.9999L42.9913 19.4697L29.7626 6.23771C29.7626 6.2377 29.7626 6.23769 29.7626 6.23769C29.0792 5.55408 29.0791 4.44622 29.7623 3.76252C29.7624 3.76249 29.7624 3.76245 29.7624 3.76242C29.7625 3.76237 29.7625 3.76232 29.7626 3.76226C30.4461 3.07945 31.5541 3.07945 32.2378 3.76248C32.2378 3.76251 32.2378 3.76253 32.2379 3.76256L47.2352 18.7646ZM71 33.25C71.9686 33.25 72.75 34.0314 72.75 35C72.75 35.9686 71.9686 36.75 71 36.75H48.5C47.5314 36.75 46.75 35.9686 46.75 35C46.75 34.0314 47.5314 33.25 48.5 33.25H71Z" stroke="#3294F8" stroke-width="1.5"/>
</g>
<path d="M14.918 68.7344C14.918 69.8047 14.9102 70.6875 14.8945 71.3828C14.8867 72.0703 14.8516 72.7773 14.7891 73.5039C14.7266 74.2227 14.6602 74.793 14.5898 75.2148C14.5195 75.6367 14.3867 76.0703 14.1914 76.5156C14.0039 76.9531 13.8164 77.2812 13.6289 77.5C13.4492 77.7109 13.1719 77.9297 12.7969 78.1562C12.4219 78.3828 12.0547 78.5352 11.6953 78.6133C11.3359 78.6914 10.8477 78.7695 10.2305 78.8477C9.62109 78.9258 9.01953 78.9727 8.42578 78.9883C7.83984 78.9961 7.09375 79 6.1875 79H1.94531V61.5391H7.99219C8.97656 61.5391 9.80859 61.582 10.4883 61.668C11.168 61.7461 11.7734 61.8984 12.3047 62.125C12.8438 62.3438 13.2734 62.6211 13.5938 62.957C13.9141 63.293 14.1758 63.7422 14.3789 64.3047C14.5898 64.8594 14.7305 65.4844 14.8008 66.1797C14.8789 66.875 14.918 67.7266 14.918 68.7344ZM12.5625 68.7695C12.5625 68.0508 12.5586 67.5352 12.5508 67.2227C12.5508 66.9023 12.5234 66.5039 12.4688 66.0273C12.4219 65.5508 12.3516 65.2266 12.2578 65.0547C12.1719 64.875 12.0312 64.6484 11.8359 64.375C11.6406 64.1016 11.4102 63.9297 11.1445 63.8594C10.8867 63.7812 10.543 63.6875 10.1133 63.5781C9.69141 63.4609 9.21875 63.3945 8.69531 63.3789C8.17188 63.3555 7.53516 63.3438 6.78516 63.3438H4.32422V77.207H7.13672C7.80859 77.207 8.33203 77.2031 8.70703 77.1953C9.08203 77.1797 9.48828 77.1445 9.92578 77.0898C10.3633 77.0352 10.6836 76.9648 10.8867 76.8789C11.0977 76.7852 11.3242 76.6445 11.5664 76.457C11.8086 76.2617 11.9766 76.043 12.0703 75.8008C12.1641 75.5508 12.2578 75.2266 12.3516 74.8281C12.4453 74.4219 12.5039 73.9766 12.5273 73.4922C12.5508 73.0078 12.5625 72.4219 12.5625 71.7344V68.7695ZM28.3125 79H18.4219V61.5391H28.207L28.4414 63.3438H20.8008V68.957H27.3281V70.8555H20.8008V77.207H28.5469L28.3125 79ZM43.6406 61.5391L37.8984 79H35.4375L29.8477 61.5391H32.3672L36.7148 75.9648L41.0625 61.5391H43.6406ZM57.3516 73.8789C57.3516 74.3867 57.3359 74.8477 57.3047 75.2617C57.2734 75.668 57.2148 76.043 57.1289 76.3867C57.0508 76.7227 56.9648 77.0195 56.8711 77.2773C56.7773 77.5352 56.6445 77.7656 56.4727 77.9688C56.3008 78.1641 56.1289 78.332 55.957 78.4727C55.793 78.6133 55.5742 78.7344 55.3008 78.8359C55.0352 78.9297 54.7773 79.0039 54.5273 79.0586C54.2773 79.1211 53.9648 79.168 53.5898 79.1992C53.2148 79.2305 52.8555 79.25 52.5117 79.2578C52.1758 79.2734 51.7617 79.2812 51.2695 79.2812C50.3398 79.2812 49.5586 79.2539 48.9258 79.1992C48.3008 79.1445 47.7656 79.0273 47.3203 78.8477C46.8828 78.668 46.543 78.4844 46.3008 78.2969C46.0586 78.1016 45.8672 77.7969 45.7266 77.3828C45.5859 76.9609 45.4922 76.5586 45.4453 76.1758C45.4062 75.793 45.3711 75.25 45.3398 74.5469L47.5078 74.1953C47.5312 74.3672 47.5547 74.6094 47.5781 74.9219C47.625 75.4062 47.668 75.75 47.707 75.9531C47.7539 76.1484 47.8398 76.3672 47.9648 76.6094C48.0898 76.8516 48.2852 77.0117 48.5508 77.0898C48.8164 77.1602 49.1641 77.2227 49.5938 77.2773C50.0234 77.332 50.5977 77.3594 51.3164 77.3594C51.9102 77.3594 52.3984 77.3438 52.7812 77.3125C53.1641 77.2812 53.5 77.2188 53.7891 77.125C54.0781 77.0234 54.2969 76.9102 54.4453 76.7852C54.5938 76.6602 54.7109 76.4688 54.7969 76.2109C54.8906 75.9453 54.9492 75.6719 54.9727 75.3906C54.9961 75.1094 55.0039 74.7344 54.9961 74.2656C54.9883 73.2344 54.9297 72.5234 54.8203 72.1328C54.7188 71.7344 54.4961 71.5 54.1523 71.4297L48.3164 70.4102C47.3008 70.2383 46.5938 69.8516 46.1953 69.25C45.7969 68.6484 45.5859 67.6758 45.5625 66.332C45.5625 65.6133 45.5977 65 45.668 64.4922C45.7461 63.9766 45.875 63.5273 46.0547 63.1445C46.2422 62.7539 46.4688 62.4414 46.7344 62.207C47.0078 61.9727 47.3633 61.7852 47.8008 61.6445C48.2461 61.4961 48.7305 61.3984 49.2539 61.3516C49.7852 61.2969 50.4336 61.2695 51.1992 61.2695C51.8242 61.2695 52.3594 61.2852 52.8047 61.3164C53.2578 61.3398 53.6953 61.3867 54.1172 61.457C54.5469 61.5273 54.9023 61.625 55.1836 61.75C55.4648 61.875 55.7227 62.0391 55.957 62.2422C56.1992 62.4375 56.3867 62.6797 56.5195 62.9688C56.6523 63.25 56.7539 63.582 56.8242 63.9648C56.8945 64.3477 56.9297 64.7891 56.9297 65.2891L54.8438 65.7695C54.7656 64.9102 54.7148 64.4219 54.6914 64.3047C54.5977 63.9062 54.375 63.6367 54.0234 63.4961C53.6328 63.332 52.8164 63.25 51.5742 63.25C50.8945 63.25 50.332 63.2695 49.8867 63.3086C49.4492 63.3477 49.0898 63.4062 48.8086 63.4844C48.5273 63.5547 48.3164 63.6641 48.1758 63.8125C48.043 63.9609 47.9531 64.1211 47.9062 64.293C47.8594 64.457 47.8359 64.6758 47.8359 64.9492V66.9766C47.8359 67.7109 48.1562 68.1328 48.7969 68.2422L52.9922 68.957C53.3828 69.0195 53.6953 69.0742 53.9297 69.1211C54.1641 69.168 54.4336 69.2305 54.7383 69.3086C55.043 69.3867 55.2812 69.4688 55.4531 69.5547C55.625 69.6406 55.8164 69.75 56.0273 69.8828C56.2383 70.0156 56.4023 70.1641 56.5195 70.3281C56.6367 70.4922 56.7539 70.6875 56.8711 70.9141C56.9961 71.1406 57.0859 71.3984 57.1406 71.6875C57.2031 71.9688 57.2539 72.293 57.293 72.6602C57.332 73.0195 57.3516 73.4258 57.3516 73.8789ZM72.375 67.2344C72.375 67.9453 72.3359 68.5781 72.2578 69.1328C72.1797 69.6875 72.0742 70.1641 71.9414 70.5625C71.8164 70.9531 71.6406 71.2891 71.4141 71.5703C71.1953 71.8516 70.9609 72.0781 70.7109 72.25C70.4688 72.4219 70.1719 72.5586 69.8203 72.6602C69.4766 72.7539 69.1328 72.8164 68.7891 72.8477C68.4531 72.8789 68.0586 72.8945 67.6055 72.8945H62.9531V79H60.5859V61.5391H66.9141C67.6406 61.5391 68.2539 61.5703 68.7539 61.6328C69.2617 61.6875 69.7305 61.793 70.1602 61.9492C70.5898 62.1055 70.9336 62.3164 71.1914 62.582C71.4492 62.8477 71.6719 63.1953 71.8594 63.625C72.0469 64.0547 72.1758 64.5625 72.2461 65.1484C72.3242 65.7266 72.3672 66.4219 72.375 67.2344ZM70.0078 67.1055C70 66.543 69.9844 66.0859 69.9609 65.7344C69.9375 65.3828 69.8906 65.0508 69.8203 64.7383C69.7578 64.4258 69.6719 64.1875 69.5625 64.0234C69.4609 63.8594 69.3164 63.7188 69.1289 63.6016C68.9492 63.4766 68.7344 63.3945 68.4844 63.3555C68.2422 63.3164 67.9375 63.2969 67.5703 63.2969H62.9531V71.125H67.0898C67.6992 71.125 68.1953 71.0742 68.5781 70.9727C68.9609 70.8711 69.2578 70.7031 69.4688 70.4688C69.6875 70.2266 69.832 69.9453 69.9023 69.625C69.9805 69.3047 70.0195 68.8906 70.0195 68.3828C70.0195 68.2578 70.0156 68.0547 70.0078 67.7734C70.0078 67.4922 70.0078 67.2695 70.0078 67.1055ZM81.7969 79.2812C81.1172 79.2812 80.5117 79.2656 79.9805 79.2344C79.457 79.2031 78.9727 79.125 78.5273 79C78.082 78.8828 77.6992 78.7734 77.3789 78.6719C77.0664 78.5703 76.7812 78.3789 76.5234 78.0977C76.2734 77.8086 76.0664 77.5625 75.9023 77.3594C75.7383 77.1484 75.5977 76.8047 75.4805 76.3281C75.3633 75.8438 75.2773 75.4336 75.2227 75.0977C75.168 74.7539 75.1211 74.2266 75.082 73.5156C75.0508 72.8047 75.0312 72.1953 75.0234 71.6875C75.0234 71.1797 75.0234 70.4453 75.0234 69.4844C75.0234 68.3281 75.0547 67.3672 75.1172 66.6016C75.1797 65.8359 75.3008 65.125 75.4805 64.4688C75.668 63.8125 75.9102 63.2969 76.207 62.9219C76.5117 62.5469 76.9219 62.2266 77.4375 61.9609C77.9609 61.6875 78.5664 61.5039 79.2539 61.4102C79.9492 61.3086 80.7969 61.2578 81.7969 61.2578C82.7422 61.2578 83.5508 61.3047 84.2227 61.3984C84.8945 61.4922 85.4883 61.6602 86.0039 61.9023C86.5273 62.1367 86.9453 62.4336 87.2578 62.793C87.5781 63.1445 87.8398 63.6094 88.043 64.1875C88.2461 64.7656 88.3828 65.4141 88.4531 66.1328C88.5312 66.8438 88.5703 67.7109 88.5703 68.7344C88.5703 71.625 88.5273 73.5273 88.4414 74.4414C88.293 76.0039 87.9336 77.1211 87.3633 77.793C86.7617 78.5117 85.7383 78.9648 84.293 79.1523C83.6055 79.2383 82.7734 79.2812 81.7969 79.2812ZM83.4727 63.1094C83.0273 63.0781 82.4688 63.0625 81.7969 63.0625C81.125 63.0625 80.5664 63.0781 80.1211 63.1094C79.6758 63.1406 79.2852 63.207 78.9492 63.3086C78.6211 63.4102 78.3672 63.5234 78.1875 63.6484C78.0078 63.7734 77.8594 63.9688 77.7422 64.2344C77.6328 64.4922 77.5586 64.7578 77.5195 65.0312C77.4883 65.3047 77.4648 65.6758 77.4492 66.1445C77.4258 67.5898 77.4141 69.043 77.4141 70.5039C77.4141 72.707 77.4727 74.2148 77.5898 75.0273C77.7773 76.2461 78.1328 76.9492 78.6562 77.1367C79.0469 77.3633 80.0938 77.4766 81.7969 77.4766C83.5 77.4766 84.5469 77.3633 84.9375 77.1367C85.0859 77.082 85.2188 76.9922 85.3359 76.8672C85.4609 76.7422 85.5625 76.5742 85.6406 76.3633C85.7266 76.1523 85.8008 75.9414 85.8633 75.7305C85.9258 75.5117 85.9766 75.2344 86.0156 74.8984C86.0547 74.5625 86.0859 74.2617 86.1094 73.9961C86.1328 73.7227 86.1484 73.3789 86.1562 72.9648C86.1641 72.543 86.168 72.1953 86.168 71.9219C86.1758 71.6484 86.1797 71.2852 86.1797 70.832C86.1797 69.2539 86.168 67.6914 86.1445 66.1445C86.1289 65.6758 86.1016 65.3047 86.0625 65.0312C86.0312 64.7578 85.957 64.4922 85.8398 64.2344C85.7305 63.9688 85.5859 63.7734 85.4062 63.6484C85.2266 63.5234 84.9688 63.4102 84.6328 63.3086C84.3047 63.207 83.918 63.1406 83.4727 63.1094ZM101.414 63.3438H96.8555V79H94.4766V63.3438H90.0117V61.5391H101.414V63.3438Z" fill="#3294F8"/>
<defs>
<clipPath id="clip0_406_119">
<rect width="45" height="40" fill="white" transform="translate(28.5)"/>
</clipPath>
</defs>
</svg>
